<svg data-v-423bf9ae="" xmlns="http://www.w3.org/2000/svg" viewBox="0 0 336 91" class="iconLeft"><!----><!----><!----><g data-v-423bf9ae="" id="1bff14a3-5717-4382-b421-c5218d8d5957" fill="#000000" transform="matrix(4.5248870849609375,0,0,4.5248870849609375,109.05077362060547,-0.33836689591407776)"><path d="M3.89 4.05L0.21 13.73L1.72 13.73L2.48 11.65L6.86 11.65L7.63 13.73L9.14 13.73L5.42 4.05ZM4.65 5.68L6.38 10.37L2.94 10.37ZM15.11 6.59C14.85 6.36 14.46 6.15 13.80 6.15C12.91 6.15 12.19 6.52 11.68 7.22L11.68 6.33L10.42 6.33L10.42 13.73L11.75 13.73L11.75 8.74C12.17 7.70 12.80 7.41 13.55 7.41C14 7.41 14.35 7.50 14.62 7.77ZM21.92 7.69C21.55 6.80 20.65 6.15 19.31 6.15C17.40 6.15 15.96 7.49 15.96 10.02C15.96 12.57 17.40 13.92 19.17 13.92C20.71 13.92 21.56 12.91 21.88 12.35L20.93 11.65C20.57 12.26 19.99 12.68 19.24 12.68C18.17 12.68 17.26 11.82 17.26 10.04C17.26 8.26 18.17 7.38 19.31 7.38C20.05 7.38 20.64 7.76 20.96 8.47ZM23.34 3.84L23.34 13.73L24.67 13.73L24.67 3.39ZM26.80 6.33L26.80 13.73L28.13 13.73L28.13 6.33ZM27.45 3.50C27.01 3.50 26.70 3.82 26.70 4.30C26.70 4.76 27.01 5.10 27.45 5.10C27.90 5.10 28.22 4.76 28.22 4.30C28.22 3.82 27.90 3.50 27.45 3.50ZM35.06 6.33L35.06 7.20C34.57 6.59 33.82 6.15 32.82 6.15C30.76 6.15 30.00 8.01 30.00 9.79C30.00 11.56 30.76 13.43 32.82 13.43C33.82 13.43 34.57 12.99 35.06 12.39L35.06 12.66C35.06 14.25 34.17 14.98 32.10 15.46L32.26 16.65C35.08 16.10 36.30 15.01 36.30 12.32L36.30 6.33ZM33.14 12.26C31.72 12.26 31.26 11.07 31.26 9.80C31.26 8.54 31.72 7.35 33.15 7.35C34.08 7.35 34.66 7.84 35.06 8.55L35.06 11.05C34.66 11.75 34.08 12.26 33.14 12.26ZM38.43 3.84L38.43 13.73L39.76 13.73L39.76 8.71C40.17 7.73 40.82 7.41 41.61 7.41C42.59 7.41 43.23 7.90 43.23 9.18L43.23 13.73L44.56 13.73L44.56 9.04C44.56 6.97 43.53 6.15 42.03 6.15C41.06 6.15 40.31 6.50 39.76 7.15L39.76 3.39ZM45.88 6.33L45.88 7.42L46.72 7.42L46.72 11.91C46.72 13.19 47.47 13.80 48.38 13.80C48.92 13.80 49.49 13.59 49.76 13.29L49.98 12.07C49.64 12.39 49.31 12.52 48.92 12.52C48.36 12.52 48.05 12.21 48.05 11.62L48.05 7.42L49.94 7.42L49.94 6.33L48.05 6.33L48.05 3.89L46.72 4.33L46.72 6.33Z"></path></g><defs data-v-423bf9ae=""><linearGradient data-v-423bf9ae="" gradientTransform="rotate(25)" id="c75b5718-1595-43da-9878-cab81a88ce47" x1="0%" y1="0%" x2="100%" y2="0%"><stop data-v-423bf9ae="" offset="0%" style="stop-color: rgb(78, 26, 112); stop-opacity: 1;"></stop><stop data-v-423bf9ae="" offset="100%" style="stop-color: rgb(43, 76, 242); stop-opacity: 1;"></stop></linearGradient></defs><g data-v-423bf9ae="" id="acbf460b-f48e-45a3-a44d-abe521d17232" transform="matrix(1.0000110864639282,0,0,1.0000110864639282,-5.00055456161499,-4.001054286956787)" stroke="none" fill="url(#c75b5718-1595-43da-9878-cab81a88ce47)"><path d="M50.002 5c-24.854 0-45 20.149-45 44.999 0 24.854 20.146 45.002 45 45.002s45-20.148 45-45.002C95.002 25.148 74.856 5 50.002 5zm0 75.738c-16.978 0-30.739-13.762-30.739-30.736 0-16.98 13.762-30.742 30.739-30.742s30.739 13.762 30.739 30.742c0 16.975-13.762 30.736-30.739 30.736z"></path></g><!----></svg>